<svg width="17" height="17" viewBox="0 0 17 17" fill="none" xmlns="http://www.w3.org/2000/svg">
<path d="M2.54455 9.38219C1.39224 8.79633 0.816083 8.5034 0.76467 8.27359C0.74526 8.18682 0.74526 8.14204 0.76467 8.05527C0.816083 7.82545 1.39224 7.53253 2.54455 6.94667C4.52624 5.93914 5.93926 4.52612 6.94679 2.54443C7.53265 1.39212 7.82558 0.815961 8.05539 0.764549C8.14216 0.745138 8.18694 0.745138 8.27371 0.764549C8.50352 0.815961 8.79645 1.39212 9.38231 2.54442C10.3898 4.52612 11.8029 5.93914 13.7846 6.94667C14.9369 7.53253 15.513 7.82545 15.5644 8.05527C15.5838 8.14204 15.5838 8.18682 15.5644 8.27359C15.513 8.5034 14.9369 8.79633 13.7846 9.38219C11.8029 10.3897 10.3898 11.8027 9.38231 13.7844C8.79645 14.9367 8.50352 15.5129 8.27371 15.5643C8.18694 15.5837 8.14216 15.5837 8.05539 15.5643C7.82558 15.5129 7.53265 14.9367 6.94679 13.7844C5.93926 11.8027 4.52624 10.3897 2.54455 9.38219Z" fill="#D8D8E1" stroke="#363447" stroke-width="1.5" stroke-linejoin="round"/>
</svg>
