<svg width="20" height="19" viewBox="0 0 20 19" fill="none" xmlns="http://www.w3.org/2000/svg">
<path d="M18.75 7.75V9.26429C18.75 10.6465 18.75 11.3376 18.581 11.9004C18.1945 13.1875 17.1875 14.1945 15.9004 14.581C15.3376 14.75 14.6465 14.75 13.2643 14.75C13.1283 14.75 13.0603 14.75 12.9965 14.7611C12.8519 14.7862 12.7179 14.8533 12.611 14.9538C12.5638 14.9982 12.523 15.0526 12.4414 15.1614L12.4414 15.1614L11.91 15.87C11.0366 17.0345 10.6 17.6167 10.0266 17.7243C9.84379 17.7586 9.65621 17.7586 9.4734 17.7243C8.90003 17.6167 8.46335 17.0345 7.59 15.87L7.05857 15.1614L7.05856 15.1614C6.97696 15.0526 6.93615 14.9982 6.88901 14.9538C6.78214 14.8533 6.64811 14.7862 6.50352 14.7611C6.43974 14.75 6.37173 14.75 6.23571 14.75C4.8535 14.75 4.16239 14.75 3.5996 14.581C2.3125 14.1945 1.3055 13.1875 0.918997 11.9004C0.75 11.3376 0.75 10.6465 0.75 9.26429V7.75C0.75 4.94108 0.75 3.53661 1.42412 2.52772C1.71596 2.09096 2.09096 1.71596 2.52772 1.42412C3.53661 0.75 4.94108 0.75 7.75 0.75H11.75C14.5589 0.75 15.9634 0.75 16.9723 1.42412C17.409 1.71596 17.784 2.09096 18.0759 2.52772C18.75 3.53661 18.75 4.94108 18.75 7.75Z" fill="white" stroke="#363447" stroke-width="1.5" stroke-linecap="round" stroke-linejoin="round"/>
</svg>
