<svg width="18" height="18" viewBox="0 0 18 18" fill="none" xmlns="http://www.w3.org/2000/svg">
<path d="M0.75 8.13366C0.75 12.2115 4.05538 15.5173 8.13277 15.5173C10.1718 15.5173 12.0179 14.6906 13.3539 13.3539C14.6895 12.0178 15.5155 10.1722 15.5155 8.13366C15.5155 4.05578 12.2102 0.75 8.13277 0.75C4.05538 0.75 0.75 4.05578 0.75 8.13366Z" fill="#B4D8FF"/>
<path d="M16.75 16.75L13.3539 13.3539M13.3539 13.3539C14.6895 12.0178 15.5155 10.1722 15.5155 8.13366C15.5155 4.05578 12.2102 0.75 8.13277 0.75C4.05538 0.75 0.75 4.05578 0.75 8.13366C0.75 12.2115 4.05538 15.5173 8.13277 15.5173C10.1718 15.5173 12.0179 14.6906 13.3539 13.3539Z" stroke="#5E52C6" stroke-width="1.5" stroke-linecap="round"/>
</svg>
