<svg width="21" height="18" viewBox="0 0 21 18" fill="none" xmlns="http://www.w3.org/2000/svg">
<path d="M10.25 3.75C11.0784 3.75 11.75 3.07843 11.75 2.25C11.75 1.42157 11.0784 0.75 10.25 0.75C9.42157 0.75 8.75 1.42157 8.75 2.25C8.75 3.07843 9.42157 3.75 10.25 3.75ZM10.25 3.75C14.6683 3.75 18.25 7.33172 18.25 11.75V12.75H2.25V11.75C2.25 7.33172 5.83172 3.75 10.25 3.75ZM17.75 12.75H2.75M17.75 12.75H2.75M17.75 12.75C18.8546 12.75 19.75 13.6454 19.75 14.75C19.75 15.8546 18.8546 16.75 17.75 16.75H2.75C1.64543 16.75 0.75 15.8546 0.75 14.75C0.75 13.6454 1.64543 12.75 2.75 12.75" stroke="#363447" stroke-width="1.5" stroke-linejoin="round"/>
</svg>
