<svg width="18" height="18" viewBox="0 0 18 18" fill="none" xmlns="http://www.w3.org/2000/svg">
<path d="M9.55 0.75H7.95C4.95021 0.75 3.45032 0.75 2.39886 1.51393C2.05928 1.76065 1.76065 2.05928 1.51393 2.39886C0.75 3.45032 0.75 4.95021 0.75 7.95V9.55C0.75 12.5498 0.75 14.0497 1.51393 15.1011C1.76065 15.4407 2.05928 15.7393 2.39886 15.9861C3.45032 16.75 4.95021 16.75 7.95 16.75H9.55C12.5498 16.75 14.0497 16.75 15.1011 15.9861C15.4407 15.7393 15.7393 15.4407 15.9861 15.1011C16.75 14.0497 16.75 12.5498 16.75 9.55V7.95C16.75 4.95021 16.75 3.45032 15.9861 2.39886C15.7393 2.05928 15.4407 1.76065 15.1011 1.51393C14.0497 0.75 12.5498 0.75 9.55 0.75Z" fill="#FFDBA1"/>
<path d="M5.75 8.75L7.75 10.75L11.75 6.75M7.95 16.75H9.55C12.5498 16.75 14.0497 16.75 15.1011 15.9861C15.4407 15.7393 15.7393 15.4407 15.9861 15.1011C16.75 14.0497 16.75 12.5498 16.75 9.55V7.95C16.75 4.95021 16.75 3.45032 15.9861 2.39886C15.7393 2.05928 15.4407 1.76065 15.1011 1.51393C14.0497 0.75 12.5498 0.75 9.55 0.75H7.95C4.95021 0.75 3.45032 0.75 2.39886 1.51393C2.05928 1.76065 1.76065 2.05928 1.51393 2.39886C0.75 3.45032 0.75 4.95021 0.75 7.95V9.55C0.75 12.5498 0.75 14.0497 1.51393 15.1011C1.76065 15.4407 2.05928 15.7393 2.39886 15.9861C3.45032 16.75 4.95021 16.75 7.95 16.75Z" stroke="#8F7448" stroke-width="1.5" stroke-linecap="round" stroke-linejoin="round"/>
</svg>
